PathFileType	4	(X/Y/Z)	flex.trc
DataRate	CameraRate	NumFrames	NumMarkers	Units	OrigDataRate	OrigDataStartFrame	OrigNumFrames
100.0	100.0	6	17	mm	100.0	846	1352
Frame#	Time	STER			XIPH			T10			T1			CLAV_AC			SCAP_AA			SCAP_CP			SCAP_TS			SCAP_IA			DELT			ARMl			EPICm			EPICl			LARM_elb			STYLr			STYLu			CLAV_SC		
		X1	Y1	Z1	X2	Y2	Z2	X3	Y3	Z3	X4	Y4	Z4	X5	Y5	Z5	X6	Y6	Z6	X7	Y7	Z7	X8	Y8	Z8	X9	Y9	Z9	X10	Y10	Z10	X11	Y11	Z11	X12	Y12	Z12	X13	Y13	Z13	X14	Y14	Z14	X15	Y15	Z15	X16	Y16	Z16	X17	Y17	Z17

846	8.45	389.9908447265625	54.232460021972656	1445.732177734375	379.541015625	120.98245239257812	1282.2056884765625	397.2314758300781	-112.48197937011719	1237.87353515625	396.0766296386719	-106.00614166259766	1463.0177001953125	565.1083984375	8.065447807312012	1467.7589111328125	593.8457641601562	-19.45599937438965	1446.7803955078125	543.2742919921875	-54.227298736572266	1459.238037109375	545.9429321289062	-103.10267639160156	1410.1217041015625	521.5374755859375	-116.71800994873047	1279.951171875	638.438720703125	116.40008544921875	1424.8975830078125	650.4573974609375	159.9552001953125	1414.9794921875	603.671875	317.17071533203125	1365.346923828125	679.7037963867188	282.2193908691406	1430.3323974609375	652.0990600585938	325.4341125488281	1365.0184326171875	603.7623291015625	522.492431640625	1564.5296630859375	619.6458129882812	547.6144409179688	1488.9322509765625	424.00128173828125	49.82698440551758	1451.6282958984375
847	8.46	389.9552917480469	54.26519012451172	1445.8272705078125	385.0808410644531	119.71315002441406	1282.340087890625	397.1424255371094	-112.4238510131836	1237.852294921875	395.768310546875	-105.96404266357422	1462.9935302734375	564.89697265625	8.03756332397461	1467.807861328125	593.5950317382812	-19.49173927307129	1446.83203125	543.011962890625	-54.14496612548828	1459.24951171875	545.5077514648438	-103.1230697631836	1410.3824462890625	521.1641235351562	-116.7400131225586	1280.1080322265625	638.3792114257812	116.29290008544922	1425.234375	650.386474609375	159.8569793701172	1415.46240234375	603.6436767578125	317.2394714355469	1366.249755859375	679.5707397460938	282.090087890625	1431.2227783203125	652.1077880859375	325.5233154296875	1366.0318603515625	603.6485595703125	521.999755859375	1566.0614013671875	619.6461791992188	547.3701782226562	1490.565673828125	423.6949768066406	49.89236068725586	1451.6265869140625
848	8.47	389.4487609863281	54.334434509277344	1445.8060302734375	379.2602233886719	121.1565170288086	1282.3714599609375	397.0153503417969	-112.39289093017578	1237.85986328125	395.43170166015625	-105.9144058227539	1462.981201171875	564.6888427734375	8.008455276489258	1467.81396484375	593.392333984375	-19.52801513671875	1446.903564453125	542.7636108398438	-54.13985061645508	1459.3056640625	545.4974365234375	-103.05089569091797	1410.253662109375	521.3224487304688	-116.72506713867188	1280.0723876953125	638.3090209960938	116.17703247070312	1425.4827880859375	650.29541015625	159.73500061035156	1415.804931640625	603.6732788085938	317.2402648925781	1366.961669921875	679.5006103515625	281.9406433105469	1431.8724365234375	652.0653076171875	325.5343933105469	1366.75244140625	603.5716552734375	521.5967407226562	1567.233642578125	619.605712890625	547.1409301757812	1491.8087158203125	423.38348388671875	49.87574005126953	1451.649658203125
849	8.48	388.96917724609375	54.38472366333008	1445.81640625	379.22479248046875	121.22992706298828	1282.39697265625	396.8673095703125	-112.37498474121094	1237.8212890625	395.16510009765625	-105.91883087158203	1462.923095703125	564.517578125	7.9813385009765625	1467.8087158203125	593.1361694335938	-19.60163116455078	1446.9359130859375	542.4931640625	-54.096893310546875	1459.3238525390625	545.2639770507812	-103.05669403076172	1410.2730712890625	521.2073974609375	-116.74089813232422	1280.114990234375	638.2611083984375	116.05186462402344	1425.6375732421875	650.2658081054688	159.59210205078125	1416.0577392578125	603.6959228515625	317.2345886230469	1367.412841796875	679.4431762695312	281.7687072753906	1432.3033447265625	652.1085205078125	325.49346923828125	1367.230712890625	603.5692749023438	521.2206420898438	1568.0184326171875	619.6503295898438	546.9090576171875	1492.6854248046875	423.2433776855469	49.89910888671875	1451.6856689453125
850	8.49	388.8482360839844	54.42140579223633	1445.9326171875	379.150634765625	121.2623291015625	1282.4105224609375	396.7361755371094	-112.3446273803711	1237.7991943359375	394.9083251953125	-105.92179870605469	1462.93310546875	564.3121337890625	7.903751373291016	1467.8140869140625	592.9474487304688	-19.707536697387695	1446.9757080078125	542.2628784179688	-54.12643814086914	1459.3138427734375	545.0185546875	-103.12145233154297	1410.2633056640625	521.0430297851562	-116.79130554199219	1280.142822265625	638.1744995117188	115.88960266113281	1425.736572265625	650.2180786132812	159.4384765625	1416.1763916015625	603.7174682617188	317.189697265625	1367.574951171875	679.4092407226562	281.5894470214844	1432.5318603515625	652.1531982421875	325.4108581542969	1367.4464111328125	603.6577758789062	520.9531860351562	1568.4615478515625	619.7548828125	546.7347412109375	1493.141357421875	423.1058349609375	49.90018844604492	1451.7200927734375
851	8.5	388.7397766113281	54.47917938232422	1445.8521728515625	nan	nan	nan	396.5393371582031	-112.32097625732422	1237.780029296875	394.60650634765625	-105.92204284667969	1462.90234375	564.1303100585938	7.803887367248535	1467.84033203125	592.779296875	-19.857166290283203	1447.043212890625	542.01123046875	-54.189693450927734	1459.38720703125	544.7681884765625	-103.19297790527344	1410.2498779296875	520.7107543945312	-116.83535766601562	1280.1329345703125	638.0735473632812	115.7076644897461	1425.726318359375	650.1841430664062	159.2604522705078	1416.20654296875	603.6997680664062	317.0585632324219	1367.5362548828125	679.41748046875	281.39874267578125	1432.51171875	652.232177734375	325.241455078125	1367.3966064453125	603.8367309570312	520.749755859375	1568.5115966796875	619.900390625	546.5575561523438	1493.17578125	422.92120361328125	49.927120208740234	1451.7884521484375
